<svg width="14" height="15" viewBox="0 0 14 15" fill="none" xmlns="http://www.w3.org/2000/svg">
<g clip-path="url(#clip0_2_116)">
<path d="M13.6043 10.2746L11.6505 8.32085C10.9528 7.62308 9.76655 7.90222 9.48744 8.80928C9.27812 9.4373 8.58035 9.78618 7.95236 9.6466C6.55683 9.29772 4.67287 7.48353 4.32398 6.01822C4.11466 5.39021 4.53331 4.69244 5.1613 4.48314C6.0684 4.20403 6.3475 3.01783 5.64974 2.32007L3.696 0.366327C3.13778 -0.122109 2.30047 -0.122109 1.81203 0.366327L0.486277 1.69208C-0.839476 3.08761 0.62583 6.78576 3.90533 10.0653C7.18482 13.3448 10.883 14.8799 12.2785 13.4843L13.6043 12.1586C14.0927 11.6003 14.0927 10.763 13.6043 10.2746Z" fill="#5D71DD"/>
</g>
<defs>
<clipPath id="clip0_2_116">
<rect width="14" height="14" fill="white" transform="translate(0 0.5)"/>
</clipPath>
</defs>
</svg>
