<svg width="11" height="11" viewBox="0 0 11 11" fill="none" xmlns="http://www.w3.org/2000/svg">
<g clip-path="url(#clip0_2_655)">
<path d="M7.63085 5.75187L3.04428 10.4029C2.894 10.5552 2.64866 10.557 2.49611 10.4067C2.34368 10.2564 2.34202 10.0109 2.49231 9.85851L6.80588 5.48433L2.41963 1.18289C2.26683 1.03299 2.26439 0.787672 2.41427 0.634852C2.48947 0.558244 2.5885 0.519427 2.68785 0.518596C2.78695 0.517768 2.88623 0.554674 2.96256 0.629487L7.62627 5.20305C7.69986 5.27505 7.74164 5.37353 7.7425 5.4765C7.74336 5.57946 7.70311 5.67851 7.63085 5.75187Z" fill="#5D71DD"/>
</g>
<defs>
<clipPath id="clip0_2_655">
<rect width="10" height="10" fill="white" transform="matrix(0.999965 -0.00835919 -0.00835919 -0.999965 0.0839844 10.541)"/>
</clipPath>
</defs>
</svg>
